<?xml version="1.0" encoding="UTF-8"?>
<!DOCTYPE svg PUBLIC "-//W3C//DTD SVG 1.1//EN" "http://www.w3.org/Graphics/SVG/1.1/DTD/svg11.dtd">
<!-- Creator: CorelDRAW 2019 (64-Bit) -->
<svg xmlns="http://www.w3.org/2000/svg" xml:space="preserve" width="47.883mm" height="14.189mm" version="1.1" style="shape-rendering:geometricPrecision; text-rendering:geometricPrecision; image-rendering:optimizeQuality; fill-rule:evenodd; clip-rule:evenodd"
viewBox="0 0 4788.3 1418.9"
 xmlns:xlink="http://www.w3.org/1999/xlink">
 <defs>
  <style type="text/css">
   <![CDATA[
    .fil2 {fill:#85CDDD}
    .fil1 {fill:#68AE18}
    .fil0 {fill:#D80100}
   ]]>
  </style>
 </defs>
 <g id="Layer_x0020_1">
  <metadata id="CorelCorpID_0Corel-Layer"/>
  <g id="_1371029644016">
   <path class="fil0" d="M2382.16 513.54c0,0 86.77,-95.89 216.41,-81.03 254.11,29.1 240.83,263.32 127.52,426.68 -67.21,96.9 -231.6,236.19 -328.06,281.41 0,0 -243.41,-150.8 -333.37,-269.87 -127.95,-144.23 -127.11,-359.95 71.6,-422.28 91.25,-28.63 182.32,-7.02 245.9,65.09z"/>
   <path class="fil0" d="M4237.42 373.07c35.9,0 65,29.1 65,65 0,35.9 -29.1,65 -65,65 -35.9,0 -65,-29.1 -65,-65 0,-35.9 29.1,-65 65,-65z"/>
   <path class="fil0" d="M4221.55 524.06l175.95 2.65 144.2 6.51c70.05,3.16 57.93,33.18 -5.39,34.29 -63.06,1.11 -128.81,-10.58 -169.37,11.98 -56.15,31.21 -29.6,161.34 -23.1,214.45 7.58,61.94 19.85,142.25 39.11,224.9 0,0 15.88,47.63 -26.46,25.14 -40.15,-18.9 -63.47,-111.68 -73.61,-150.61 -23.38,-89.85 -50.8,-50.88 -65.68,10.77 -13.64,56.51 -25.85,108.55 -68.85,149.29 -49.72,47.18 -34.83,-41.42 -30.73,-63.85 7.81,-42.71 20.54,-114.99 30.69,-185.7 8.85,-61.63 42.01,-185.12 -21.24,-219.1 -45.4,-24.41 -123.32,-19.11 -185.32,-21.12 -44.11,-1.42 -60.45,-31.85 -3.31,-32.98 0,0 79.37,-5.3 117.74,-6.62l165.37 0z"/>
   <path class="fil1" d="M508.86 585.91l1.48 -41.15c0,0 20.09,-14.31 13.37,-33.62 -4.19,-11.99 -14.25,-16.78 -25.41,-9.08 -6.46,4.47 -10.73,14.32 -5.65,34.12l-3.91 53.1 20.12 -3.37z"/>
   <path class="fil0" d="M549.13 559.89c40.76,-16.34 116.54,-33.22 190.46,21.77 160.17,127.82 -12.05,497.54 -193.15,383.65 -136.32,73.28 -293.6,-82.45 -297.39,-215.11 -2.31,-80.74 36.57,-182.74 121.59,-206.96 25.97,-7.39 56.64,-5.88 89.81,15.93 7.68,5.76 32.19,27.01 40.84,25.87 3.2,-0.41 40.04,-22.03 47.84,-25.15z"/>
   <path class="fil0" d="M621.66 434.74c0,0 14.54,44.31 -38.37,84 0,0 -70.77,43 -56.22,-10.58 0,0 5.95,-19.18 9.26,-26.46 15.74,-34.61 47.24,-49.42 85.33,-46.96z"/>
   <path class="fil0" d="M343.34 352.71c0,0 20.83,1.52 48.77,13.89 68.46,30.31 108.61,62.23 98.73,146.19 0,0 -0.01,14.64 -9.38,18.92 -10.03,4.57 -62.31,-19.56 -72.84,-26.08 -51,-31.6 -68.28,-88.7 -65.28,-152.92z"/>
   <path class="fil2" d="M1002.53 812.07c0,0 111.12,-404.82 -312.21,-579.44 0,0 -386.28,-137.58 -587.37,238.13 0,0 -214.32,383.65 187.85,637.65 0,0 240.77,166.68 547.69,-34.4 0,0 -230.2,216.95 -537.11,82.02 0,0 -357.18,-137.58 -296.33,-590.02 0,0 42.32,-267.22 346.6,-373.06 0,0 529.17,-187.87 695.86,383.64 0,0 20.99,62.95 4.66,159.67 -8.12,48.15 -51.55,136.49 44.3,108.89l67.47 -141.55 83.34 138.9 91.14 1.43 41.15 -476.36 83.35 465.67c0,0 83.82,-5.48 146.04,-33.36 41.38,-18.54 67.2,-60.1 80.51,-106.01 30.83,-106.47 -2.62,-149.12 59.67,-289.19 175.74,-395.11 616.1,-502.46 967.07,-309.51 224.75,123.55 377.78,363.71 364.07,625.64 -16.61,-272.44 -132.94,-465.27 -363.38,-593.79 -326.78,-182.27 -765.43,-85.23 -905.41,314.85 -36.96,105.64 -31.49,213.43 -91.79,306.88 -41.51,64.31 -124.07,128.17 -254.05,128.17l-16.53 183.88 -55.56 -449.79 -20.5 291.74 -138.25 -2.02 -67.47 -99.22 -44.98 99.22c0,0 -146.84,34.4 -123.03,-74.08l3.2 -14.58z"/>
   <path class="fil2" d="M3502.21 783.44l-52.91 -431.27 -63.5 489.48 -79.38 0 -68.79 -119.06 -94.25 123.69c0,0 -35.87,-2.82 -57.98,0.58 -52.29,8.06 -64.13,84.91 -88.82,132.17 -290.48,555.97 -1026.86,511.39 -1253.86,-60.65 0,0 74.09,410.69 590.03,497.42 0,0 445.69,78.35 698.61,-396.28 17.49,-32.79 48.18,-133.2 92.42,-132.28l49.1 1.03 58.14 -91.6 51.59 92.61 134.94 -1.32 33.07 -263.27 33.08 432.6 46.3 -235.48 156.1 3.97c0,0 20.05,-29.42 43.18,-77.61 49.09,-102.24 55.72,-203.88 110.13,-301.01 125.42,-223.91 406.46,-290.35 614.55,-206.52 151.84,61.16 254.37,203.6 281.22,417.14 33.13,497.13 -636.63,717.88 -920.75,269.87 115.97,276.94 483.03,350.63 724.96,209.02 326.81,-191.8 322.95,-681.25 26.1,-895.85 -264.75,-191.41 -679.73,-59.92 -797.51,242.63 -27.95,71.8 -28.93,142.01 -55.5,215.03 -11.35,31.17 -26.94,64.09 -47.53,88.28l-162.74 -3.32z"/>
  </g>
 </g>
</svg>
